HIERARCHY
ROOT Hips
{
	OFFSET 0.000000 0.000000 0.000000
	CHANNELS 6 Xposition Yposition Zposition Zrotation Yrotation Xrotation 
	JOINT LowerBack
	{
		OFFSET 0.000000 0.000000 0.000000
		CHANNELS 3 Zrotation Yrotation Xrotation
		JOINT Spine
		{
			OFFSET 0.028270 2.035590 -0.193380
			CHANNELS 3 Zrotation Yrotation Xrotation
			JOINT Spine1
			{
				OFFSET 0.056720 2.048850 -0.042750
				CHANNELS 3 Zrotation Yrotation Xrotation
				JOINT Neck
				{
					OFFSET 0.000000 0.000000 0.000000
					CHANNELS 3 Zrotation Yrotation Xrotation
					JOINT Neck1
					{
						OFFSET -0.054170 1.746240 0.172020
						CHANNELS 3 Zrotation Yrotation Xrotation
						JOINT Head
						{
							OFFSET 0.104070 1.761360 -0.123970
							CHANNELS 3 Zrotation Yrotation Xrotation
							End Site
							{
								OFFSET 0.000000 0.000000 0.000000
							}
						}
					}
				}
				JOINT LeftShoulder
				{
					OFFSET 0.000000 0.000000 0.000000
					CHANNELS 3 Zrotation Yrotation Xrotation
					JOINT LeftArm
					{
						OFFSET 3.362410 1.200890 -0.311210
						CHANNELS 3 Zrotation Yrotation Xrotation
						JOINT LeftForeArm
						{
							OFFSET 4.983000 -0.000000 -0.000000
							CHANNELS 3 Zrotation Yrotation Xrotation
							JOINT LeftHand
							{
								OFFSET 3.483560 -0.000000 -0.000000
								CHANNELS 3 Zrotation Yrotation Xrotation
								JOINT LeftFingerBase
								{
									OFFSET 0.000000 0.000000 0.000000
									CHANNELS 3 Zrotation Yrotation Xrotation
									JOINT LeftHandIndex1
									{
										OFFSET 0.715260 -0.000000 -0.000000
										CHANNELS 3 Zrotation Yrotation Xrotation
										End Site
										{
											OFFSET 0.000000 0.000000 0.000000
										}
									}
								}
								JOINT LThumb
								{
									OFFSET 0.000000 0.000000 0.000000
									CHANNELS 3 Zrotation Yrotation Xrotation
									End Site
									{
										OFFSET 0.000000 0.000000 0.000000
									}
								}
							}
						}
					}
				}
				JOINT RightShoulder
				{
					OFFSET 0.000000 0.000000 0.000000
					CHANNELS 3 Zrotation Yrotation Xrotation
					JOINT RightArm
					{
						OFFSET -3.136600 1.374050 -0.404650
						CHANNELS 3 Zrotation Yrotation Xrotation
						JOINT RightForeArm
						{
							OFFSET -5.241900 -0.000000 -0.000000
							CHANNELS 3 Zrotation Yrotation Xrotation
							JOINT RightHand
							{
								OFFSET -3.444170 -0.000000 -0.000000
								CHANNELS 3 Zrotation Yrotation Xrotation
								JOINT RightFingerBase
								{
									OFFSET 0.000000 0.000000 0.000000
									CHANNELS 3 Zrotation Yrotation Xrotation
									JOINT RightHandIndex1
									{
										OFFSET -0.622530 -0.000000 -0.000000
										CHANNELS 3 Zrotation Yrotation Xrotation
										End Site
										{
											OFFSET 0.000000 0.000000 0.000000
										}
									}
								}
								JOINT RThumb
								{
									OFFSET 0.000000 0.000000 0.000000
									CHANNELS 3 Zrotation Yrotation Xrotation
									End Site
									{
										OFFSET 0.000000 0.000000 0.000000
									}
								}
							}
						}
					}
				}
			}
		}
	}
}
}
MOTION
Frames: 10
Frame Time: 0.008333
-10.942533 16.471155 -0.768941 64.361663 87.009923 100.151454 6.094479 -3.959267 8.409728 1.210626 -4.012046 -1.405938 -3.592701 -3.952148 -0.952728 5.071999 -14.976311 -8.185945 -1.869932 -0.111760 -0.553184 0.000000 0.000000 0.000000 13.246524 6.783687 -0.096021 -62.613916 6.026207 9.771567 -178.689053 -60.094839 179.975719 3.040472 0.244003 -0.005713 -0.083674 0.499515 -0.000000 0.000000 0.000000 0.000000 0.000000 0.000000 0.000000 1.293146 -10.198940 0.446663 72.346470 -34.919298 13.061399 179.968957 80.282449 179.945026 -12.838175 12.920545 -1.532839 0.185547 -0.462491 -0.000000 0.000000 0.000000 0.000000 0.000000 0.000000 0.000000 
-10.777575 16.393453 -0.746178 73.112813 87.116795 108.801240 6.325845 -3.971950 8.459599 1.225064 -4.015576 -1.402003 -3.758018 -3.950734 -0.991390 5.427700 -14.975367 -8.268912 -1.947987 -0.116528 -0.577333 0.000000 0.000000 0.000000 13.285962 6.494184 -0.060920 -63.377537 6.842344 10.352338 -178.751032 -60.743007 179.978205 2.781875 0.137986 -0.007665 -0.068658 0.496498 -0.000000 0.000000 0.000000 0.000000 0.000000 0.000000 0.000000 1.951518 -10.171950 0.516604 72.956574 -33.984006 12.186653 179.964773 80.465276 179.944116 -12.839929 12.979939 -1.540728 0.186350 -0.468549 -0.000000 0.000000 0.000000 0.000000 0.000000 0.000000 0.000000 
-10.617635 16.313117 -0.725309 81.889915 87.209817 117.453123 6.597584 -3.970146 8.579672 1.236171 -4.004149 -1.390872 -3.955386 -3.934207 -1.066306 5.824854 -14.885662 -8.327435 -2.051725 -0.123534 -0.596925 0.000000 0.000000 0.000000 13.271246 6.128282 -0.003617 -64.137389 7.663523 10.800804 -178.810049 -61.449053 179.980605 2.526076 0.062057 -0.008519 -0.054152 0.492268 -0.000000 0.000000 0.000000 0.000000 0.000000 0.000000 0.000000 2.737808 -10.052902 0.592728 73.527762 -32.959651 11.214818 179.961111 80.651389 179.942726 -12.932837 13.018635 -1.557313 0.188750 -0.474878 -0.000000 0.000000 0.000000 0.000000 0.000000 0.000000 0.000000 
-10.462701 16.232127 -0.706657 90.645138 87.301769 126.055088 6.912195 -3.955660 8.774523 1.245249 -3.978367 -1.372588 -4.182278 -3.903528 -1.180809 6.255995 -14.678386 -8.346721 -2.182256 -0.133025 -0.608054 0.000000 0.000000 0.000000 13.187365 5.689205 0.077775 -64.904318 8.498070 11.114527 -178.867861 -62.228521 179.982817 2.287256 0.023345 -0.008273 -0.040576 0.486553 -0.000000 0.000000 0.000000 0.000000 0.000000 0.000000 0.000000 3.646344 -9.818657 0.671934 74.052198 -31.832778 10.149349 179.958647 80.864336 179.940812 -13.122651 13.013636 -1.580598 0.192699 -0.480871 -0.000000 0.000000 0.000000 0.000000 0.000000 0.000000 0.000000 
-10.312673 16.152572 -0.690614 99.389507 87.414099 134.609932 7.272829 -3.929600 9.049900 1.255131 -3.937991 -1.345636 -4.430702 -3.858950 -1.333210 6.706180 -14.325003 -8.312176 -2.335759 -0.144805 -0.606916 0.000000 0.000000 0.000000 13.020411 5.204215 0.183719 -65.692388 9.335396 11.304525 -178.927689 -63.118743 179.984616 2.094262 0.007113 -0.007723 -0.028775 0.479819 -0.000000 0.000000 0.000000 0.000000 0.000000 0.000000 0.000000 4.646402 -9.449219 0.748831 74.524188 -30.580502 9.013519 179.958814 81.145415 179.938318 -13.415510 12.951169 -1.609388 0.197963 -0.485891 -0.000000 0.000000 0.000000 0.000000 0.000000 0.000000 0.000000 
-10.167012 16.076042 -0.677229 108.156652 87.566175 143.152937 7.671248 -3.886256 9.398187 1.265774 -3.876848 -1.310311 -4.692994 -3.794924 -1.517717 7.162543 -13.818018 -8.212748 -2.506762 -0.158489 -0.590209 0.000000 0.000000 0.000000 12.764383 4.697387 0.310958 -66.510062 10.164186 11.392676 -178.993326 -64.157578 179.985845 1.970793 0.028036 -0.006667 -0.019353 0.471440 -0.000000 0.000000 0.000000 0.000000 0.000000 0.000000 0.000000 5.710029 -8.943253 0.817780 74.932583 -29.190311 7.835589 179.962473 81.524572 179.935219 -13.813499 12.808118 -1.640289 0.204371 -0.489241 -0.000000 0.000000 0.000000 0.000000 0.000000 0.000000 0.000000 
-10.024982 16.003884 -0.666451 116.935371 87.774480 151.673840 8.084094 -3.819287 9.810212 1.274207 -3.788965 -1.266737 -4.959196 -3.706076 -1.726330 7.610690 -13.154089 -8.040378 -2.687363 -0.173442 -0.555265 0.000000 0.000000 0.000000 12.417190 4.196824 0.455161 -67.359380 10.975595 11.401981 -179.068356 -65.384049 179.986330 1.944805 0.096324 -0.005202 -0.012953 0.460927 -0.000000 0.000000 0.000000 0.000000 0.000000 0.000000 0.000000 6.800893 -8.302689 0.872763 75.269292 -27.657135 6.650163 179.970356 82.030055 179.931516 -14.313639 12.570583 -1.669804 0.211622 -0.490401 -0.000000 0.000000 0.000000 0.000000 0.000000 0.000000 0.000000 
-9.885660 15.937084 -0.657884 125.631592 88.044716 160.079978 8.471871 -3.723331 10.273600 1.274341 -3.670372 -1.214965 -5.218082 -3.588863 -1.947755 8.037505 -12.344951 -7.793993 -2.867886 -0.188816 -0.501171 0.000000 0.000000 0.000000 11.984304 3.729821 0.610084 -68.235785 11.760294 11.358554 -179.155396 -66.832812 179.985912 2.045337 0.220472 -0.003131 -0.010136 0.447873 -0.000000 0.000000 0.000000 0.000000 0.000000 0.000000 0.000000 7.880109 -7.543459 0.908133 75.528261 -25.981373 5.499022 179.982738 82.681751 179.927244 -14.907806 12.233019 -1.694337 0.219357 -0.489090 -0.000000 0.000000 0.000000 0.000000 0.000000 0.000000 0.000000 
-9.748111 15.876238 -0.650991 134.072196 88.367611 168.198886 8.787337 -3.597754 10.772046 1.259229 -3.522419 -1.154852 -5.457812 -3.444694 -2.166242 8.432142 -11.420495 -7.482396 -3.037608 -0.203616 -0.429646 0.000000 0.000000 0.000000 11.482481 3.326052 0.767857 -69.131014 12.501414 11.294189 -179.255121 -68.532841 179.984467 2.300345 0.404037 0.000347 -0.011351 0.432137 0.000000 0.000000 0.000000 0.000000 0.000000 0.000000 0.000000 8.907911 -6.698719 0.918445 75.707378 -24.167204 4.427942 179.999297 83.488121 179.922482 -15.583202 11.800791 -1.710587 0.227200 -0.485317 -0.000000 0.000000 0.000000 0.000000 0.000000 0.000000 0.000000 
-9.611295 15.821535 -0.644942 141.997847 88.716055 175.772703 8.992031 -3.449923 11.284001 1.224331 -3.353938 -1.087843 -5.669222 -3.282174 -2.367267 8.787495 -10.418532 -7.120047 -3.187425 -0.217018 -0.343860 0.000000 0.000000 0.000000 10.933650 3.000549 0.921999 -70.029597 13.196058 11.234944 -179.365465 -70.497072 179.981980 2.728812 0.652209 0.006633 -0.016725 0.413609 0.000000 0.000000 0.000000 0.000000 0.000000 0.000000 0.000000 9.851469 -5.806790 0.900168 75.811791 -22.232829 3.475608 -179.981141 84.438556 179.917367 -16.318249 11.288661 -1.715856 0.234753 -0.479392 -0.000000 0.000000 0.000000 0.000000 0.000000 0.000000 0.000000 
